# xmcd
#
# Track frame offsets:
#   151
#   14989
#   26818
#   40227
#   55131
#   70606
#   88584
#   101208
#   117645
#   132213
#   148889
#   167911
#   178907
#   196287
#   216832
#   231861
#
# Disc length: 3248 seconds
#
# Revision: 0
# Processed by: cddbd v1.5.1PL2 Copyright (c) Steve Scherf et al.
# Submitted via: GXTranscoder 2.0.1939
#
DISCID=f80cae10
DTITLE=CONVENIO KYODAI - Musica del Recuerdo II
DYEAR=1900
DGENRE=Blues
TTITLE0=TE QUISE, TE QUIERO Y TE QUERRE
TTITLE1=EL ULTIMO BESO
TTITLE2=RECUERDOS DE UNA NOCHE
TTITLE3=PUERTO MONTT
TTITLE4=LEJOS DE LOS OJOS
TTITLE5=UNA SONRISA, UNA LAGRIMA
TTITLE6=ADIOS VERANO, ADIOS AMOR
TTITLE7=EL TELEFONO LLORA
TTITLE8=LA VIDA SIGUE IGUAL
TTITLE9=AMERICA, AMERICA
TTITLE10=YO NO SE PORQUE ESTA MELODIA
TTITLE11=VA CAYENDO UNA LAGRIMA
TTITLE12=SOLEDAD DE TI, SOLEDAD DE MI
TTITLE13=GUARDA ESA ROSA
TTITLE14=MATAME
TTITLE15=TEMA PARA JOVENES ENAMORADOS
EXTD=
EXTT0=
EXTT1=
EXTT2=
EXTT3=
EXTT4=
EXTT5=
EXTT6=
EXTT7=
EXTT8=
EXTT9=
EXTT10=
EXTT11=
EXTT12=
EXTT13=
EXTT14=
EXTT15=
PLAYORDER=
